HIERARCHY
ROOT Hips
{
 OFFSET 0.000000 0.000000 0.000000
 CHANNELS 6 Xposition Yposition Zposition Yrotation Xrotation Zrotation
 JOINT Chest
 {
  OFFSET 0.000000 9.585900 0.002600
  CHANNELS 3 Yrotation Xrotation Zrotation
  JOINT Chest2
  {
   OFFSET 0.000000 9.601200 -0.005300
   CHANNELS 3 Yrotation Xrotation Zrotation
   JOINT Chest3
   {
    OFFSET 0.000000 9.561800 0.000000
    CHANNELS 3 Yrotation Xrotation Zrotation
    JOINT Chest4
    {
     OFFSET 0.000000 9.552100 0.000000
     CHANNELS 3 Yrotation Xrotation Zrotation
     JOINT Neck
     {
      OFFSET 0.000000 14.453000 0.000000
      CHANNELS 3 Yrotation Xrotation Zrotation
      JOINT Head
      {
       OFFSET 0.000000 8.936500 -0.011300
       CHANNELS 3 Yrotation Xrotation Zrotation
       End Site
       {
        OFFSET 0.000000 17.073600 -0.006000
       }
      }
     }
     JOINT RightCollar
     {
      OFFSET -2.921100 9.558500 0.000000
      CHANNELS 3 Yrotation Xrotation Zrotation
      JOINT RightShoulder
      {
       OFFSET -13.519700 0.000000 0.000000
       CHANNELS 3 Yrotation Xrotation Zrotation
       JOINT RightElbow
       {
        OFFSET 0.000000 -29.696600 0.000000
        CHANNELS 3 Yrotation Xrotation Zrotation
        JOINT RightWrist
        {
         OFFSET 0.000000 -24.004700 0.000000
         CHANNELS 3 Yrotation Xrotation Zrotation
         End Site
         {
          OFFSET 0.000000 -17.728500 0.000000
         }
        }
       }
      }
     }
     JOINT LeftCollar
     {
      OFFSET 2.921100 9.558500 0.000000
      CHANNELS 3 Yrotation Xrotation Zrotation
      JOINT LeftShoulder
      {
       OFFSET 13.519700 0.000000 0.000000
       CHANNELS 3 Yrotation Xrotation Zrotation
       JOINT LeftElbow
       {
        OFFSET 0.000000 -29.696600 0.000000
        CHANNELS 3 Yrotation Xrotation Zrotation
        JOINT LeftWrist
        {
         OFFSET 0.000000 -24.004700 0.000000
         CHANNELS 3 Yrotation Xrotation Zrotation
         End Site
         {
          OFFSET 0.000000 -17.728500 0.000000
         }
        }
       }
      }
     }
    }
   }
  }
 }
 JOINT RightHip
 {
  OFFSET -7.771700 -0.012900 -0.001300
  CHANNELS 3 Yrotation Xrotation Zrotation
  JOINT RightKnee
  {
   OFFSET 0.000000 -40.869800 0.001200
   CHANNELS 3 Yrotation Xrotation Zrotation
   JOINT RightAnkle
   {
    OFFSET 0.000000 -39.717900 0.002100
    CHANNELS 3 Yrotation Xrotation Zrotation
    JOINT RightToe
    {
     OFFSET 0.000000 -4.965400 11.033500
     CHANNELS 3 Yrotation Xrotation Zrotation
     End Site
     {
      OFFSET 0.000000 -1.423100 5.872300
     }
    }
   }
  }
 }
 JOINT LeftHip
 {
  OFFSET 7.771700 -0.012900 -0.001300
  CHANNELS 3 Yrotation Xrotation Zrotation
  JOINT LeftKnee
  {
   OFFSET 0.000000 -40.869800 0.001200
   CHANNELS 3 Yrotation Xrotation Zrotation
   JOINT LeftAnkle
   {
    OFFSET 0.000000 -39.717900 0.002100
    CHANNELS 3 Yrotation Xrotation Zrotation
    JOINT LeftToe
    {
     OFFSET 0.000000 -4.965400 11.033500
     CHANNELS 3 Yrotation Xrotation Zrotation
     End Site
     {
      OFFSET 0.000000 -1.423100 5.872300
     }
    }
   }
  }
 }
}
MOTION
Frames: 5
Frame Time: 0.008333
0.000000 85.388000 0.000000 0.000000 -5.767877 0.000000 0.000000 11.653817 0.000000 0.000000 -5.885947 0.000000 0.000000 -0.000000 0.000000 0.000000 -0.000000 0.000000 0.000000 12.528835 0.000000 0.000000 0.711642 0.000000 0.000000 -0.000000 0.000000 0.000000 0.000000 -90.000000 0.000000 -2.309062 0.000000 0.000000 2.309062 0.000000 0.000000 -0.000000 0.000000 0.000000 -0.000000 90.000000 0.000000 -2.309062 0.000000 0.000000 2.309062 0.000000 0.000000 8.520406 0.000000 0.000000 1.905762 0.000000 -0.000000 -4.658285 0.000000 0.000000 -0.000000 0.000000 0.000000 8.520406 0.000000 0.000000 1.905762 0.000000 -0.000000 -4.658285 0.000000 0.000000 -0.000000 0.000000
9.717244 49.935103 47.410531 172.686964 -30.653231 -5.633371 12.539282 22.571312 9.712975 1.794536 3.950395 1.085380 2.891079 6.259253 1.785372 9.756521 18.846137 6.666837 -6.909107 18.375637 2.221394 -13.387014 -1.128907 6.271595 6.546980 -4.924882 -4.326930 26.648044 -40.102764 -27.578594 104.519333 -47.891150 -124.272237 -1.633364 -9.181939 -14.681530 -13.333418 -2.860866 3.162789 0.923361 -9.585987 0.131887 -119.541912 -67.099806 134.753034 16.627671 -12.673281 -25.489628 0.902658 -50.468219 8.796515 -130.610170 86.627284 -119.160100 -1.819985 -11.725968 -4.237171 -0.107450 0.647352 -0.014823 -7.344229 -53.867805 15.279936 -150.713030 80.080339 -158.210259 0.608124 -15.490976 8.473977 -0.446626 -0.962118 -0.211465
9.717278 49.935123 47.410230 172.665267 -30.626086 -5.634342 12.602447 22.601387 9.787156 1.805882 3.969263 1.098789 2.908695 6.286784 1.806739 9.790310 18.868694 6.720153 -6.926316 18.291319 2.199782 -13.419599 -1.285638 6.247240 6.538175 -4.957354 -4.358287 26.532465 -39.893681 -27.396617 104.680558 -48.010916 -124.467287 -1.703220 -8.677611 -14.290373 -13.291932 -3.021814 3.113169 0.761024 -9.624498 0.080672 -118.971910 -66.945865 134.212138 16.656005 -12.727214 -25.649452 0.908807 -50.505103 8.837817 -130.458609 86.626899 -119.029136 -1.889500 -11.700874 -4.197354 -0.147008 0.650080 -0.030603 -7.363224 -53.900330 15.307170 -150.568013 80.056648 -158.068874 0.648838 -15.478806 8.477875 -0.442827 -0.966861 -0.213730
9.717637 49.936393 47.408833 172.656550 -30.599436 -5.643870 12.634872 22.601348 9.830731 1.839901 4.015931 1.139129 2.887056 6.263350 1.783590 9.883319 18.927409 6.823333 -6.949071 18.202344 2.179865 -13.463294 -1.450169 6.228369 6.516774 -4.980322 -4.399084 26.396564 -39.586951 -27.173954 104.810595 -47.996247 -124.718507 -1.722697 -8.344039 -14.049185 -13.259236 -3.174069 3.060341 0.594269 -9.700680 0.051716 -118.353822 -66.812718 133.600767 16.689955 -12.795313 -25.765156 0.924096 -50.538422 8.870661 -130.141961 86.614557 -118.712267 -1.981846 -11.683690 -4.168105 -0.159962 0.654865 -0.035516 -7.408814 -53.929946 15.339062 -150.409072 80.032143 -157.914519 0.696683 -15.466435 8.490606 -0.432559 -0.976147 -0.233332
9.719618 49.939122 47.406771 172.657643 -30.573012 -5.667766 12.707921 22.635326 9.940581 1.841581 4.014920 1.137753 2.924364 6.310061 1.826244 9.895462 18.916945 6.848799 -6.976007 18.109258 2.161488 -13.515577 -1.621515 6.214115 6.484920 -4.986319 -4.436981 26.199895 -39.238454 -26.889962 104.976065 -47.843444 -125.015254 -1.702028 -8.214204 -13.963591 -13.229491 -3.315522 3.004594 0.430638 -9.811901 0.101610 -117.806381 -66.769950 133.029371 16.723474 -12.877444 -25.835679 0.954070 -50.567827 8.897849 -129.684958 86.594973 -118.242018 -2.039857 -11.674309 -4.148429 -0.113280 0.670138 -0.028355 -7.471296 -53.955009 15.376502 -150.235052 80.009114 -157.736374 0.763822 -15.468639 8.477013 -0.431472 -0.979385 -0.241577
